<mxfile host="app.diagrams.net" modified="2023-09-26T11:47:16.207Z" agent="Mozilla/5.0 (Windows NT 10.0; Win64; x64) AppleWebKit/537.36 (KHTML, like Gecko) Chrome/114.0.0.0 Safari/537.36" etag="s2PsMvufFwS1maluYR_b" version="21.8.1" type="device">
  <diagram id="FKq5CLQAyFFpM8Bv2wke" name="Page-1">
    <mxGraphModel dx="1036" dy="531" grid="1" gridSize="10" guides="1" tooltips="1" connect="1" arrows="1" fold="1" page="1" pageScale="1" pageWidth="850" pageHeight="1100" math="0" shadow="0">
      <root>
        <mxCell id="0" />
        <mxCell id="1" parent="0" />
        <mxCell id="8DLabtTejDQ22D-dgJ3I-15" style="edgeStyle=orthogonalEdgeStyle;rounded=0;orthogonalLoop=1;jettySize=auto;html=1;entryX=0.5;entryY=0;entryDx=0;entryDy=0;fontSize=14;" parent="1" source="8DLabtTejDQ22D-dgJ3I-10" target="8DLabtTejDQ22D-dgJ3I-12" edge="1">
          <mxGeometry relative="1" as="geometry" />
        </mxCell>
        <mxCell id="8DLabtTejDQ22D-dgJ3I-10" value="&lt;span style=&quot;font-size: 12px; font-weight: 700;&quot;&gt;init Tracking_System&lt;/span&gt;" style="rounded=1;whiteSpace=wrap;html=1;fontSize=21;" parent="1" vertex="1">
          <mxGeometry x="300" y="520" width="210" height="60" as="geometry" />
        </mxCell>
        <mxCell id="8DLabtTejDQ22D-dgJ3I-20" style="edgeStyle=orthogonalEdgeStyle;rounded=0;orthogonalLoop=1;jettySize=auto;html=1;entryX=0.5;entryY=0;entryDx=0;entryDy=0;fontSize=14;" parent="1" source="8DLabtTejDQ22D-dgJ3I-11" target="8DLabtTejDQ22D-dgJ3I-19" edge="1">
          <mxGeometry relative="1" as="geometry" />
        </mxCell>
        <mxCell id="8DLabtTejDQ22D-dgJ3I-11" value="track(self, List&amp;lt;image&amp;gt; , ??? BodyVectors)" style="rounded=1;whiteSpace=wrap;html=1;fontSize=14;fontStyle=1" parent="1" vertex="1">
          <mxGeometry x="235" y="860" width="340" height="60" as="geometry" />
        </mxCell>
        <mxCell id="8DLabtTejDQ22D-dgJ3I-14" style="edgeStyle=orthogonalEdgeStyle;rounded=0;orthogonalLoop=1;jettySize=auto;html=1;entryX=0.5;entryY=0;entryDx=0;entryDy=0;fontSize=14;" parent="1" source="8DLabtTejDQ22D-dgJ3I-12" target="8DLabtTejDQ22D-dgJ3I-13" edge="1">
          <mxGeometry relative="1" as="geometry" />
        </mxCell>
        <mxCell id="8DLabtTejDQ22D-dgJ3I-12" value="infinit" style="rhombus;whiteSpace=wrap;html=1;fontSize=14;" parent="1" vertex="1">
          <mxGeometry x="365" y="620" width="80" height="80" as="geometry" />
        </mxCell>
        <mxCell id="8DLabtTejDQ22D-dgJ3I-16" style="edgeStyle=orthogonalEdgeStyle;rounded=0;orthogonalLoop=1;jettySize=auto;html=1;fontSize=14;" parent="1" source="8DLabtTejDQ22D-dgJ3I-13" target="8DLabtTejDQ22D-dgJ3I-11" edge="1">
          <mxGeometry relative="1" as="geometry" />
        </mxCell>
        <mxCell id="8DLabtTejDQ22D-dgJ3I-13" value="Capture&lt;span&gt; &lt;/span&gt;Images From each Camera" style="rounded=1;whiteSpace=wrap;html=1;fontSize=14;fontStyle=1" parent="1" vertex="1">
          <mxGeometry x="270" y="740" width="270" height="60" as="geometry" />
        </mxCell>
        <mxCell id="8DLabtTejDQ22D-dgJ3I-18" value="Skipe" style="rounded=1;whiteSpace=wrap;html=1;fontSize=14;" parent="1" vertex="1">
          <mxGeometry x="160" y="980" width="120" height="60" as="geometry" />
        </mxCell>
        <mxCell id="8DLabtTejDQ22D-dgJ3I-21" value="yes" style="edgeStyle=orthogonalEdgeStyle;rounded=0;orthogonalLoop=1;jettySize=auto;html=1;fontSize=14;" parent="1" source="8DLabtTejDQ22D-dgJ3I-19" target="8DLabtTejDQ22D-dgJ3I-18" edge="1">
          <mxGeometry relative="1" as="geometry" />
        </mxCell>
        <mxCell id="8DLabtTejDQ22D-dgJ3I-24" style="edgeStyle=orthogonalEdgeStyle;rounded=0;orthogonalLoop=1;jettySize=auto;html=1;entryX=0.5;entryY=0;entryDx=0;entryDy=0;fontSize=14;" parent="1" source="8DLabtTejDQ22D-dgJ3I-19" target="8DLabtTejDQ22D-dgJ3I-23" edge="1">
          <mxGeometry relative="1" as="geometry" />
        </mxCell>
        <mxCell id="8DLabtTejDQ22D-dgJ3I-19" value="If none" style="rhombus;whiteSpace=wrap;html=1;fontSize=14;" parent="1" vertex="1">
          <mxGeometry x="365" y="970" width="80" height="80" as="geometry" />
        </mxCell>
        <mxCell id="8DLabtTejDQ22D-dgJ3I-30" style="edgeStyle=orthogonalEdgeStyle;rounded=0;orthogonalLoop=1;jettySize=auto;html=1;entryX=0.5;entryY=0;entryDx=0;entryDy=0;fontSize=14;" parent="1" source="8DLabtTejDQ22D-dgJ3I-23" target="8DLabtTejDQ22D-dgJ3I-29" edge="1">
          <mxGeometry relative="1" as="geometry">
            <Array as="points">
              <mxPoint x="320" y="1290" />
              <mxPoint x="320" y="1290" />
            </Array>
          </mxGeometry>
        </mxCell>
        <mxCell id="8DLabtTejDQ22D-dgJ3I-35" style="edgeStyle=orthogonalEdgeStyle;rounded=0;orthogonalLoop=1;jettySize=auto;html=1;fontSize=14;" parent="1" source="8DLabtTejDQ22D-dgJ3I-32" target="8DLabtTejDQ22D-dgJ3I-25" edge="1">
          <mxGeometry relative="1" as="geometry">
            <Array as="points">
              <mxPoint x="520" y="1510" />
            </Array>
          </mxGeometry>
        </mxCell>
        <mxCell id="8DLabtTejDQ22D-dgJ3I-23" value="&lt;div style=&quot;text-align: left;&quot;&gt;&lt;span style=&quot;background-color: initial;&quot;&gt;List:{&lt;/span&gt;&lt;/div&gt;&lt;blockquote style=&quot;margin: 0 0 0 40px; border: none; padding: 0px;&quot;&gt;&lt;div style=&quot;text-align: left;&quot;&gt;&lt;span style=&quot;background-color: initial;&quot;&gt;Body_Coordinate = (1,2,3,4)&lt;/span&gt;&lt;/div&gt;&lt;div style=&quot;text-align: left;&quot;&gt;&lt;span style=&quot;background-color: initial;&quot;&gt;Face_Coordinate=(1,2,3,4)&lt;/span&gt;&lt;/div&gt;&lt;div style=&quot;text-align: left;&quot;&gt;&lt;span style=&quot;background-color: initial;&quot;&gt;ID = {unknown, number}&lt;/span&gt;&lt;/div&gt;&lt;div style=&quot;text-align: left;&quot;&gt;&lt;span style=&quot;background-color: initial;&quot;&gt;Body_image = ?&lt;/span&gt;&lt;br&gt;&lt;/div&gt;&lt;div style=&quot;text-align: left;&quot;&gt;&lt;span style=&quot;background-color: initial;&quot;&gt;}&lt;/span&gt;&lt;br&gt;&lt;/div&gt;&lt;/blockquote&gt;" style="rounded=1;whiteSpace=wrap;html=1;fontSize=14;" parent="1" vertex="1">
          <mxGeometry x="205" y="1130" width="400" height="140" as="geometry" />
        </mxCell>
        <mxCell id="8DLabtTejDQ22D-dgJ3I-28" value="True" style="edgeStyle=orthogonalEdgeStyle;rounded=0;orthogonalLoop=1;jettySize=auto;html=1;fontSize=14;entryX=0;entryY=0.75;entryDx=0;entryDy=0;" parent="1" source="8DLabtTejDQ22D-dgJ3I-25" target="8DLabtTejDQ22D-dgJ3I-26" edge="1">
          <mxGeometry relative="1" as="geometry">
            <mxPoint x="495" y="1730" as="targetPoint" />
          </mxGeometry>
        </mxCell>
        <mxCell id="8DLabtTejDQ22D-dgJ3I-40" style="edgeStyle=orthogonalEdgeStyle;rounded=0;orthogonalLoop=1;jettySize=auto;html=1;fontSize=14;entryX=1;entryY=0.5;entryDx=0;entryDy=0;" parent="1" source="8DLabtTejDQ22D-dgJ3I-25" target="8DLabtTejDQ22D-dgJ3I-12" edge="1">
          <mxGeometry relative="1" as="geometry">
            <mxPoint x="540" y="1660" as="targetPoint" />
            <Array as="points">
              <mxPoint x="715" y="660" />
            </Array>
          </mxGeometry>
        </mxCell>
        <mxCell id="8DLabtTejDQ22D-dgJ3I-41" value="No" style="edgeLabel;html=1;align=center;verticalAlign=middle;resizable=0;points=[];fontSize=14;" parent="8DLabtTejDQ22D-dgJ3I-40" vertex="1" connectable="0">
          <mxGeometry x="-0.2727" y="1" relative="1" as="geometry">
            <mxPoint as="offset" />
          </mxGeometry>
        </mxCell>
        <mxCell id="8DLabtTejDQ22D-dgJ3I-25" value="&lt;span style=&quot;text-align: left;&quot;&gt;ShouldBeBodyAddToDB&lt;/span&gt;" style="rhombus;whiteSpace=wrap;html=1;fontSize=14;" parent="1" vertex="1">
          <mxGeometry x="605" y="1470" width="220" height="80" as="geometry" />
        </mxCell>
        <mxCell id="8DLabtTejDQ22D-dgJ3I-37" style="edgeStyle=orthogonalEdgeStyle;rounded=0;orthogonalLoop=1;jettySize=auto;html=1;fontSize=14;dashed=1;" parent="1" source="8DLabtTejDQ22D-dgJ3I-26" target="8DLabtTejDQ22D-dgJ3I-36" edge="1">
          <mxGeometry relative="1" as="geometry">
            <Array as="points">
              <mxPoint x="974" y="1220" />
              <mxPoint x="974" y="1220" />
            </Array>
          </mxGeometry>
        </mxCell>
        <mxCell id="8DLabtTejDQ22D-dgJ3I-26" value="Save Image Vector" style="rounded=1;whiteSpace=wrap;html=1;fontSize=14;" parent="1" vertex="1">
          <mxGeometry x="920" y="1470" width="120" height="60" as="geometry" />
        </mxCell>
        <mxCell id="8DLabtTejDQ22D-dgJ3I-33" style="edgeStyle=orthogonalEdgeStyle;rounded=0;orthogonalLoop=1;jettySize=auto;html=1;fontSize=14;" parent="1" source="8DLabtTejDQ22D-dgJ3I-29" target="8DLabtTejDQ22D-dgJ3I-32" edge="1">
          <mxGeometry relative="1" as="geometry" />
        </mxCell>
        <mxCell id="8DLabtTejDQ22D-dgJ3I-29" value="For each Object" style="rounded=1;whiteSpace=wrap;html=1;fontSize=14;" parent="1" vertex="1">
          <mxGeometry x="260" y="1360" width="120" height="60" as="geometry" />
        </mxCell>
        <mxCell id="8DLabtTejDQ22D-dgJ3I-43" style="edgeStyle=orthogonalEdgeStyle;rounded=0;orthogonalLoop=1;jettySize=auto;html=1;fontSize=14;dashed=1;" parent="1" source="8DLabtTejDQ22D-dgJ3I-32" target="8DLabtTejDQ22D-dgJ3I-42" edge="1">
          <mxGeometry relative="1" as="geometry" />
        </mxCell>
        <mxCell id="8DLabtTejDQ22D-dgJ3I-32" value="Save Object to Database" style="rounded=1;whiteSpace=wrap;html=1;fontSize=14;" parent="1" vertex="1">
          <mxGeometry x="260" y="1480" width="120" height="60" as="geometry" />
        </mxCell>
        <mxCell id="8DLabtTejDQ22D-dgJ3I-52" style="edgeStyle=orthogonalEdgeStyle;rounded=0;orthogonalLoop=1;jettySize=auto;html=1;entryX=0.75;entryY=0;entryDx=0;entryDy=0;dashed=1;fontSize=14;" parent="1" source="8DLabtTejDQ22D-dgJ3I-36" target="8DLabtTejDQ22D-dgJ3I-11" edge="1">
          <mxGeometry relative="1" as="geometry">
            <Array as="points">
              <mxPoint x="1017" y="840" />
              <mxPoint x="442" y="840" />
            </Array>
          </mxGeometry>
        </mxCell>
        <mxCell id="8DLabtTejDQ22D-dgJ3I-36" value="Body Redis vector" style="shape=datastore;whiteSpace=wrap;html=1;fontSize=14;" parent="1" vertex="1">
          <mxGeometry x="914" y="1050" width="206" height="70" as="geometry" />
        </mxCell>
        <mxCell id="8DLabtTejDQ22D-dgJ3I-45" style="edgeStyle=orthogonalEdgeStyle;rounded=0;orthogonalLoop=1;jettySize=auto;html=1;dashed=1;fontSize=14;" parent="1" source="8DLabtTejDQ22D-dgJ3I-42" target="8DLabtTejDQ22D-dgJ3I-44" edge="1">
          <mxGeometry relative="1" as="geometry" />
        </mxCell>
        <mxCell id="8DLabtTejDQ22D-dgJ3I-42" value="DB - Log - History" style="shape=cylinder3;whiteSpace=wrap;html=1;boundedLbl=1;backgroundOutline=1;size=15;fontSize=14;" parent="1" vertex="1">
          <mxGeometry x="262.5" y="1650" width="115" height="110" as="geometry" />
        </mxCell>
        <mxCell id="8DLabtTejDQ22D-dgJ3I-44" value="No SQL" style="shape=cylinder3;whiteSpace=wrap;html=1;boundedLbl=1;backgroundOutline=1;size=15;fontSize=14;" parent="1" vertex="1">
          <mxGeometry x="490" y="1890" width="220" height="80" as="geometry" />
        </mxCell>
        <mxCell id="8DLabtTejDQ22D-dgJ3I-46" value="User" style="shape=umlActor;verticalLabelPosition=bottom;verticalAlign=top;html=1;outlineConnect=0;fontSize=14;" parent="1" vertex="1">
          <mxGeometry x="175" y="2010" width="30" height="60" as="geometry" />
        </mxCell>
        <mxCell id="8DLabtTejDQ22D-dgJ3I-48" style="edgeStyle=orthogonalEdgeStyle;rounded=0;orthogonalLoop=1;jettySize=auto;html=1;fontSize=14;" parent="1" source="8DLabtTejDQ22D-dgJ3I-47" edge="1">
          <mxGeometry relative="1" as="geometry">
            <mxPoint x="600" y="1980" as="targetPoint" />
          </mxGeometry>
        </mxCell>
        <mxCell id="8DLabtTejDQ22D-dgJ3I-47" value="Report" style="rounded=1;whiteSpace=wrap;html=1;fontSize=14;" parent="1" vertex="1">
          <mxGeometry x="260" y="2020" width="120" height="60" as="geometry" />
        </mxCell>
        <mxCell id="8DLabtTejDQ22D-dgJ3I-53" value="Hesam" style="shape=umlActor;verticalLabelPosition=bottom;verticalAlign=top;html=1;outlineConnect=0;fontSize=14;" parent="1" vertex="1">
          <mxGeometry x="320" y="370" width="30" height="60" as="geometry" />
        </mxCell>
        <mxCell id="8DLabtTejDQ22D-dgJ3I-56" style="edgeStyle=orthogonalEdgeStyle;rounded=0;orthogonalLoop=1;jettySize=auto;html=1;dashed=1;fontSize=14;" parent="1" source="8DLabtTejDQ22D-dgJ3I-54" target="8DLabtTejDQ22D-dgJ3I-10" edge="1">
          <mxGeometry relative="1" as="geometry" />
        </mxCell>
        <mxCell id="8DLabtTejDQ22D-dgJ3I-54" value="" style="ellipse;whiteSpace=wrap;html=1;aspect=fixed;fontSize=14;fillColor=#000000;" parent="1" vertex="1">
          <mxGeometry x="385" y="400" width="40" height="40" as="geometry" />
        </mxCell>
      </root>
    </mxGraphModel>
  </diagram>
</mxfile>
